<svg width="208" height="40" viewBox="0 0 208 40" fill="none" xmlns="http://www.w3.org/2000/svg">
<path d="M14.8331 33.7514H5V5.38778H14.9716C17.8061 5.38778 20.2436 5.95561 22.2841 7.09127C24.3338 8.21768 25.908 9.83807 27.0067 11.9524C28.1055 14.0668 28.6548 16.5966 28.6548 19.5419C28.6548 22.4964 28.1009 25.0355 26.9929 27.1591C25.8942 29.2827 24.3107 30.9123 22.2425 32.0479C20.1836 33.1836 17.7138 33.7514 14.8331 33.7514ZM10.5675 28.9457H14.5838C16.4581 28.9457 18.0277 28.6087 19.2926 27.9347C20.5575 27.2607 21.5085 26.2312 22.1456 24.8462C22.7919 23.4521 23.1151 21.6839 23.1151 19.5419C23.1151 17.4091 22.7919 15.6548 22.1456 14.2791C21.5085 12.8942 20.5621 11.8693 19.3065 11.2045C18.06 10.5305 16.5135 10.1935 14.6669 10.1935H10.5675V28.9457Z" fill="#FAFAFA"/>
<path d="M34.4558 33.7514H28.4867L38.3752 5.38778H45.4246L55.313 33.7514H49.3439L42.0037 11.5369H41.7822L34.4558 33.7514ZM34.3312 22.6165H49.3993V27.0206H34.3312V22.6165Z" fill="#FAFAFA"/>
<path d="M52.6382 5.38778H58.912L65.6012 17.7692H65.8782L72.5814 5.38778H78.8551L68.5235 23.4474V33.7514H62.9698V23.4474L52.6382 5.38778Z" fill="#FAFAFA"/>
<path d="M81.3842 10.0135V5.38778H104.347V10.0135H95.6214V33.7514H90.1093V10.0135H81.3842Z" fill="#FAFAFA"/>
<path d="M107.7 33.7514H101.731L111.619 5.38778H118.668L128.557 33.7514H122.588L115.248 11.5369H115.026L107.7 33.7514ZM107.575 22.6165H122.643V27.0206H107.575V22.6165Z" fill="#FAFAFA"/>
<path d="M130.577 33.7514V5.38778H136.144V29.1257H148.47V33.7514H130.577Z" fill="#FAFAFA"/>
<path d="M175.707 19.5696C175.707 22.6442 175.13 25.271 173.976 27.4499C172.822 29.6197 171.252 31.277 169.267 32.4219C167.282 33.5668 165.043 34.1392 162.55 34.1392C160.048 34.1392 157.804 33.5668 155.819 32.4219C153.834 31.2678 152.264 29.6058 151.11 27.4361C149.965 25.2571 149.393 22.6349 149.393 19.5696C149.393 16.495 149.965 13.8729 151.11 11.7031C152.264 9.52415 153.834 7.86222 155.819 6.71733C157.804 5.57244 160.048 5 162.55 5C165.043 5 167.282 5.57244 169.267 6.71733C171.252 7.86222 172.822 9.52415 173.976 11.7031C175.13 13.8729 175.707 16.495 175.707 19.5696ZM170.084 19.5696C170.084 17.4922 169.765 15.7425 169.128 14.3207C168.501 12.8896 167.619 11.8093 166.483 11.0799C165.357 10.3413 164.046 9.97195 162.55 9.97195C161.054 9.97195 159.738 10.3413 158.603 11.0799C157.476 11.8093 156.599 12.8896 155.971 14.3207C155.344 15.7425 155.03 17.4922 155.03 19.5696C155.03 21.647 155.344 23.4013 155.971 24.8324C156.599 26.2543 157.476 27.3345 158.603 28.0732C159.738 28.8026 161.054 29.1673 162.55 29.1673C164.046 29.1673 165.357 28.8026 166.483 28.0732C167.619 27.3345 168.501 26.2543 169.128 24.8324C169.765 23.4013 170.084 21.647 170.084 19.5696Z" fill="#FAFAFA"/>
<path d="M197.701 14.5007C197.489 13.7898 197.193 13.1573 196.815 12.6033C196.436 12.0401 195.979 11.5646 195.444 11.1768C194.918 10.7798 194.313 10.4798 193.63 10.2766C192.956 10.0735 192.212 9.97195 191.4 9.97195C189.913 9.97195 188.598 10.3413 187.453 11.0799C186.317 11.8185 185.426 12.9034 184.78 14.3345C184.143 15.7564 183.824 17.4922 183.824 19.5419C183.824 21.6009 184.138 23.3505 184.766 24.7908C185.403 26.2219 186.294 27.3114 187.439 28.0593C188.593 28.7979 189.941 29.1673 191.483 29.1673C192.886 29.1673 194.091 28.9087 195.098 28.3917C196.104 27.8746 196.88 27.1406 197.424 26.1896C197.969 25.2386 198.241 24.1168 198.241 22.8242L199.432 23.0043H191.926V18.7386H203.615V22.2287C203.615 24.6847 203.093 26.8036 202.05 28.5856C201.007 30.3675 199.571 31.7386 197.743 32.6989C195.915 33.6591 193.819 34.1392 191.455 34.1392C188.824 34.1392 186.511 33.5529 184.517 32.3803C182.522 31.1985 180.967 29.5227 179.849 27.353C178.741 25.174 178.187 22.5888 178.187 19.5973C178.187 17.2983 178.515 15.2486 179.171 13.4482C179.836 11.6477 180.763 10.1197 181.954 8.86399C183.146 7.59908 184.535 6.63885 186.123 5.98331C187.72 5.32777 189.452 5 191.317 5C192.905 5 194.382 5.23082 195.749 5.69247C197.124 6.15412 198.343 6.80966 199.405 7.65909C200.476 8.49929 201.353 9.50107 202.036 10.6644C202.719 11.8278 203.163 13.1065 203.366 14.5007H197.701Z" fill="#FAFAFA"/>
</svg>
